<?xml version="1.0" standalone="no"?>
<!DOCTYPE svg PUBLIC "-//W3C//DTD SVG 20010904//EN"
 "http://www.w3.org/TR/2001/REC-SVG-20010904/DTD/svg10.dtd">
<svg version="1.0" xmlns="http://www.w3.org/2000/svg"
 width="547.000000pt" height="561.000000pt" viewBox="0 0 547.000000 561.000000"
 preserveAspectRatio="xMidYMid meet">

<g transform="translate(0.000000,561.000000) scale(0.100000,-0.100000)"
fill="#000000" stroke="none">
<path d="M0 2805 l0 -2805 2735 0 2735 0 -1 923 c-1 556 -5 904 -10 877 -32
-163 -166 -280 -332 -288 -111 -6 -182 22 -262 102 -103 104 -133 239 -83 373
31 82 121 172 203 202 214 80 439 -56 478 -289 2 -14 5 815 6 1843 l1 1867
-2735 0 -2735 0 0 -2805z m2447 2280 c427 -56 786 -237 1108 -560 325 -325
512 -716 555 -1160 40 -415 -43 -812 -242 -1152 -26 -45 -48 -85 -48 -89 0 -4
-8 -17 -17 -28 l-18 -21 23 19 c22 19 23 19 88 -4 90 -31 230 -33 290 -2 50
26 102 77 120 119 8 18 19 33 26 33 26 0 139 -73 165 -108 74 -95 78 -107 78
-237 0 -102 -4 -130 -24 -183 -29 -77 -96 -150 -165 -180 -180 -80 -518 -64
-766 35 -66 26 -178 91 -188 109 -7 12 -20 6 -74 -35 -260 -197 -533 -315
-857 -370 -62 -11 -114 -21 -117 -23 -2 -2 1 -20 6 -39 38 -132 -66 -263 -210
-263 -109 0 -252 109 -341 260 -40 67 -46 73 -84 80 -163 27 -434 139 -617
255 -428 271 -722 664 -838 1119 -77 303 -81 693 -9 985 66 267 216 554 401
765 337 384 747 610 1223 674 139 19 389 19 532 1z"/>
<path d="M2050 4293 c-224 -24 -445 -122 -601 -269 -105 -97 -165 -170 -242
-296 -35 -57 -88 -204 -107 -299 -28 -137 -28 -372 1 -509 61 -296 240 -547
515 -722 l42 -27 31 94 c87 262 270 441 546 533 181 61 446 61 615 0 76 -27
175 -82 235 -131 28 -23 52 -42 54 -44 2 -1 -2 -10 -10 -20 -10 -12 -10 -14
-1 -9 7 4 24 30 37 56 143 283 154 684 26 992 -67 161 -233 362 -386 467 -214
148 -481 213 -755 184z"/>
<path d="M3046 2472 l-19 -27 24 22 c12 12 21 24 18 27 -2 2 -13 -8 -23 -22z"/>
<path d="M3004 2418 l-19 -23 23 19 c12 11 22 21 22 23 0 8 -8 2 -26 -19z"/>
<path d="M2879 2293 c-13 -16 -12 -17 4 -4 16 13 21 21 13 21 -2 0 -10 -8 -17
-17z"/>
<path d="M2809 2243 c-13 -16 -12 -17 4 -4 16 13 21 21 13 21 -2 0 -10 -8 -17
-17z"/>
<path d="M2409 2221 c-59 -12 -128 -62 -182 -131 -28 -36 -44 -59 -37 -52 8 6
39 12 70 12 118 1 297 48 420 110 32 16 62 35 66 42 5 10 4 10 -6 1 -9 -9 -22
-8 -54 3 -47 17 -224 27 -277 15z"/>
<path d="M1652 2135 c0 -16 2 -22 5 -12 2 9 2 23 0 30 -3 6 -5 -1 -5 -18z"/>
<path d="M1642 2035 c0 -16 2 -22 5 -12 2 9 2 23 0 30 -3 6 -5 -1 -5 -18z"/>
<path d="M2161 1974 c0 -11 3 -14 6 -6 3 7 2 16 -1 19 -3 4 -6 -2 -5 -13z"/>
<path d="M3644 1898 l-29 -33 33 29 c30 28 37 36 29 36 -2 0 -16 -15 -33 -32z"/>
<path d="M2142 1900 c0 -14 2 -19 5 -12 2 6 2 18 0 25 -3 6 -5 1 -5 -13z"/>
<path d="M1642 1850 c0 -19 2 -27 5 -17 2 9 2 25 0 35 -3 9 -5 1 -5 -18z"/>
<path d="M2142 1780 c0 -14 2 -19 5 -12 2 6 2 18 0 25 -3 6 -5 1 -5 -13z"/>
<path d="M3479 1733 l-34 -38 38 34 c20 19 37 36 37 38 0 8 -8 0 -41 -34z"/>
<path d="M1652 1735 c0 -16 2 -22 5 -12 2 9 2 23 0 30 -3 6 -5 -1 -5 -18z"/>
<path d="M2151 1730 c0 -8 4 -24 9 -35 5 -13 9 -14 9 -5 0 8 -4 24 -9 35 -5
13 -9 14 -9 5z"/>
<path d="M1661 1684 c0 -11 3 -14 6 -6 3 7 2 16 -1 19 -3 4 -6 -2 -5 -13z"/>
<path d="M1671 1644 c0 -11 3 -14 6 -6 3 7 2 16 -1 19 -3 4 -6 -2 -5 -13z"/>
<path d="M2191 1610 c14 -31 19 -36 19 -24 0 6 -7 19 -16 30 -14 18 -14 18 -3
-6z"/>
<path d="M2235 1526 c10 -14 19 -26 22 -26 7 0 -17 39 -28 46 -6 3 -3 -5 6
-20z"/>
<path d="M2301 1420 c14 -31 19 -36 19 -24 0 6 -7 19 -16 30 -14 18 -14 18 -3
-6z"/>
<path d="M1760 1365 c0 -5 5 -17 10 -25 5 -8 10 -10 10 -5 0 6 -5 17 -10 25
-5 8 -10 11 -10 5z"/>
<path d="M2347 1319 c4 -13 8 -18 11 -10 2 7 -1 18 -6 23 -8 8 -9 4 -5 -13z"/>
</g>
</svg>
